PathFileType	4	(X/Y/Z)	Patient4_TMGait_0pt5_02_left_35.trc.trc
DataRate	CameraRate	NumFrames	NumMarkers	Units	OrigDataRate	OrigDataStartFrame	OrigNumFrames
77.348066298342	77.348066298342	4	33	mm	77.348066298342	1	       141
Frame#	Time	Sacral			L.Shoulder			Chest			R.Shoulder			Neck			R.ASIS			L.ASIS			R.Thigh.Superior			R.Thigh.Lateral			R.Thigh.Inferior			R.Patella			L.Thigh.Superior			L.Thigh.Lateral			L.Thigh.Inferior			L.Patella			L.Shank.Superior			L.Shank.Lateral			L.Shank.Inferior			R.Shank.Superior			R.Shank.Lateral			R.Shank.Inferior			R.Heel			R.Midfoot.Superior			R.Midfoot.Lateral			R.Toe			L.Heel			L.Midfoot.Lateral			L.Midfoot.Superior			L.Toe			L.Elbow			L.Wrist			R.Elbow			R.Wrist			
		X1	Y1	Z1	X2	Y2	Z2	X3	Y3	Z3	X4	Y4	Z4	X5	Y5	Z5	X6	Y6	Z6	X7	Y7	Z7	X8	Y8	Z8	X9	Y9	Z9	X10	Y10	Z10	X11	Y11	Z11	X12	Y12	Z12	X13	Y13	Z13	X14	Y14	Z14	X15	Y15	Z15	X16	Y16	Z16	X17	Y17	Z17	X18	Y18	Z18	X19	Y19	Z19	X20	Y20	Z20	X21	Y21	Z21	X22	Y22	Z22	X23	Y23	Z23	X24	Y24	Z24	X25	Y25	Z25	X26	Y26	Z26	X27	Y27	Z27	X28	Y28	Z28	X29	Y29	Z29	X30	Y30	Z30	X31	Y31	Z31	X32	Y32	Z32	X33	Y33	Z33	

1	45.050000000000	754.039619949660	1008.722015365236	515.330986558090	920.443147974993	1435.618303872300	326.906156537464	1030.897282690417	1365.300958390863	483.248861901137	954.691958630837	1437.531883652442	662.025018473993	927.625287214893	1497.234164328810	478.150104752549	985.846726991399	942.962573479746	622.298466676378	959.669421610276	963.241004610675	350.065737206659	1029.061978109592	741.416805214511	590.251246457301	948.243560537924	633.147206865364	648.186528931797	1022.413365595913	581.757997264546	564.432664538784	1022.262340005034	492.864590988041	566.885490000955	1042.866993284853	778.578145394238	383.524185702977	999.074553116472	652.380327665715	308.645054435042	1099.970301116566	589.274778567291	372.405280131522	1112.781625295970	499.155971196105	367.301823750646	1047.815688349103	431.118691418812	359.010961922353	909.738122730915	383.915000034848	303.836241456782	897.997399281685	255.013603417310	361.214266744825	994.787324331006	404.314048563852	574.502373578353	926.039236534229	300.247159157897	637.523530689462	963.753126452083	206.253719810320	571.128090757282	826.576254647968	42.671160906504	544.537388763451	998.531711810262	97.144701829743	574.886113095115	911.830698804323	36.906772502001	617.500873438757	1119.951364885561	44.489425716748	601.370535736012	705.776709040497	190.311965873644	388.793940036259	768.447076177656	138.042839802995	316.618236158122	872.381895126130	148.390973849629	343.341946081601	951.867630588786	34.366359914734	330.408236804287	893.730146907593	1076.930287571005	219.834427546846	983.800934937138	831.882093425086	204.369885004864	984.720602828881	1092.590656818097	788.440677904607	1153.751437465515	894.214517022338	762.001028088597	
2	45.062928571429	752.628103778945	1009.707366644540	517.230493167796	919.225649218161	1435.511118553183	327.225023655773	1030.949279289869	1365.002688822394	482.535289663992	956.994212424079	1438.175857011279	661.856125268595	928.131414154114	1497.417686674460	478.178416337162	984.608288204238	942.745743027256	622.451436458701	957.034734418366	964.042322307149	350.404557702288	1025.718664594798	740.802991860929	589.678706466714	944.693699185054	633.223955019376	648.636786017389	1017.529427865702	581.275719756497	564.255093913347	1016.856164312315	492.440029629282	566.982811789274	1041.684583215281	781.256000913918	384.250283043771	999.020407124144	654.596163809913	309.373711978706	1100.084978318587	592.384139185542	373.547008647220	1114.438275317991	503.618868084718	368.376918191968	1053.419929404084	434.209689021113	359.238160867234	919.238486182633	378.701723799658	304.606347991835	917.057571679142	249.655525454683	360.840254382720	989.076887894174	403.977425272296	574.617495123820	920.106815609073	300.103555303679	637.641994344612	957.336997171313	206.058853679910	571.209417703953	819.797753400020	42.671827412604	544.573964202991	991.706611198224	97.136648309124	575.000359330608	904.955699102459	36.867971360904	617.572306659001	1113.056216752846	44.416428754174	601.423117323078	731.831492837584	171.349983390411	389.696510171707	796.387141628817	125.376443996044	315.891471087033	898.799443268155	142.826697366407	341.741111397588	985.473505466439	36.266932237048	325.782170473023	885.550239822818	1076.753881704185	222.981636313698	963.748755084843	828.942746348493	208.676350373591	995.066921074828	1094.672926601173	788.197977970747	1173.517874118472	907.391166458989	758.434148024818	
3	45.075857142857	751.230489809046	1010.682655347511	519.082160614014	918.052898840381	1435.395641248147	327.520765544110	1031.014998811804	1364.678642659092	481.811553139322	959.281992004491	1438.781054336831	661.666995726715	928.653012599383	1497.578344203110	478.189803607465	983.381935785245	942.520713227579	622.590766342092	954.430888209652	964.801324788510	350.729111991517	1022.421299062449	740.186709495637	589.130128951816	941.176773591284	633.286467664450	649.071023106904	1012.715268665730	580.788474896611	564.088995476701	1011.514543441381	492.013344959457	567.078264268902	1040.412273313649	783.763703928391	384.930412188102	998.733413591461	656.660773641967	310.057349621426	1099.901015664339	595.275101192939	374.691066741169	1115.821877397182	507.956751740490	369.444239732311	1058.788802577016	437.251648781235	359.497468947263	928.790471951480	373.444841286061	305.280100363249	936.116771328365	244.467986827774	360.515009252301	983.431765037751	403.638035910394	574.729467232020	914.236203630954	299.960110424589	637.756451433489	950.980596170272	205.858914396985	571.286826792304	813.062895728013	42.674605975844	544.614920156790	984.927857139104	97.122688162900	575.106862038593	898.133546773381	36.830515093930	617.642477288584	1106.213111195130	44.337794085977	601.476593974460	758.151398908125	152.668694313061	390.494352028578	824.582602829904	113.007768382389	315.190455637979	925.286648831566	137.554968892813	340.282600909177	1019.037144423890	38.601211408661	321.527215098339	877.379535059346	1076.634926907498	226.030656050030	943.981330652647	826.196880441541	212.955859155139	1005.269827170670	1096.734915099828	787.902382939389	1192.939269270854	920.558128261195	754.842651992437	
4	45.088785714286	749.863890721324	1011.632575711816	520.835470767629	916.965115852507	1435.265110089491	327.763534613854	1031.103222957599	1364.308332156174	481.062252436471	961.533901674767	1439.311349758508	661.430767831341	929.200858634530	1497.696246289241	478.159930871324	982.181174246075	942.279580277771	622.693695675300	951.891216494017	965.480325782977	351.012519092953	1019.212490827980	739.564185551879	588.618456160419	937.725174582516	633.320126022879	649.469203457409	1008.032889682273	580.289533571474	563.936658419320	1006.293883616344	491.579534578880	567.163875181697	1038.962542736357	785.949415041568	385.521241515259	998.040169396997	658.446417449944	310.647824861031	1099.194900644555	597.766662725751	375.822532718262	1116.706386112788	512.046520109182	370.491017403697	1063.708573946532	440.196310747549	359.805890086086	938.373818976968	368.167179249881	305.801726730030	955.060765941732	239.655248855088	360.287801224169	977.906210957263	403.289912224661	574.828720257005	908.475730147844	299.818907444132	637.860627828222	944.728824628319	205.649899551266	571.355126069017	806.400361798532	42.682885497169	544.663131900430	978.227616343301	97.100061205518	575.200329783204	891.400104744374	36.796645991472	617.710890562729	1099.459212053754	44.250187449454	601.531520884103	784.799254806229	134.665649762928	391.145297826054	853.058856287198	101.298944493865	314.572605777881	951.730134344730	132.883302129264	339.094863541517	1052.294068224666	41.741269236952	317.952988221680	869.240727419178	1076.636766229589	228.890231375144	924.783986530837	823.830832073143	217.168610139590	1015.179784105600	1098.755424584306	787.486415023251	1211.647216616373	933.701727532007	751.192897845435	
